<?xml version="1.0" encoding="UTF-8" standalone="no"?>
<svg
   viewBox="0 0 331.98239 331.98239"
   version="1.1"
   id="svg4"
   sodipodi:docname="check-cancel-solid.svg"
   xml:space="preserve"
   inkscape:version="1.2.1 (9c6d41e410, 2022-07-14)"
   width="331.98239"
   height="331.98239"
   xmlns:inkscape="http://www.inkscape.org/namespaces/inkscape"
   xmlns:sodipodi="http://sodipodi.sourceforge.net/DTD/sodipodi-0.dtd"
   xmlns="http://www.w3.org/2000/svg"
   xmlns:svg="http://www.w3.org/2000/svg"><defs
     id="defs8" /><sodipodi:namedview
     id="namedview6"
     pagecolor="#505050"
     bordercolor="#eeeeee"
     borderopacity="1"
     inkscape:showpageshadow="0"
     inkscape:pageopacity="0"
     inkscape:pagecheckerboard="0"
     inkscape:deskcolor="#505050"
     showgrid="false"
     inkscape:zoom="0.53723543"
     inkscape:cx="-23.267267"
     inkscape:cy="7.4455253"
     inkscape:window-width="1920"
     inkscape:window-height="1057"
     inkscape:window-x="-8"
     inkscape:window-y="-8"
     inkscape:window-maximized="1"
     inkscape:current-layer="svg4" /><!--! Font Awesome Pro 6.1.2 by @fontawesome - https://fontawesome.com License - https://fontawesome.com/license (Commercial License) Copyright 2022 Fonticons, Inc. --><path
     style="fill:#000000;stroke-width:2.61473"
     d="M 42.523007,1.0666331 C 52.280747,4.1801371 322.46632,276.26138 327.96328,288.48276 c 4.61494,10.26028 1.44543,27.11428 -6.45256,34.31213 -8.8619,8.07629 -24.39559,11.52578 -33.78681,7.50289 C 283.22687,328.37142 249.70459,296.08919 145.92849,191.38774 -21.890034,22.072843 6.1196769,49.292243 3.2424669,38.554403 -1.2815031,21.670693 5.5589369,8.8333541 22.262227,2.8603861 c 8.74374,-3.126706 14.48921,-3.635229 20.26078,-1.793753 z"
     id="path305"
     sodipodi:nodetypes="cssssssc" /><path
     style="fill:#000000;stroke-width:2.61473"
     d="M 1.0666369,289.45939 C 4.1801369,279.70165 276.26139,9.5160821 288.48277,4.0191221 c 10.26028,-4.61494 27.11428,-1.44543 34.31213,6.4525599 8.07629,8.861901 11.52578,24.395591 7.50289,33.786811 -1.92636,4.49704 -34.20859,38.01932 -138.91004,141.795417 C 22.072847,353.87243 49.292247,325.86272 38.554407,328.73993 21.670697,333.2639 8.8333569,326.42346 2.8603869,309.72017 c -3.12670998,-8.74374 -3.63522998,-14.48921 -1.79375,-20.26078 z"
     id="path288"
     sodipodi:nodetypes="cssssssc" /></svg>
