<svg width="176" height="134" viewBox="0 0 176 134" fill="none" xmlns="http://www.w3.org/2000/svg">
<path d="M71.4595 124.062C71.4595 124.312 71.531 125.009 71.6561 126.118C71.7812 127.244 71.7812 128.12 71.6561 128.745C71.531 129.371 71.388 130.246 71.2629 131.373C71.1378 132.499 70.7982 133.178 70.262 133.428C69.7257 133.678 68.9214 133.857 67.8669 134H32.2265C23.2896 134 15.6753 131.051 9.40163 125.17C3.12792 119.308 0 112.176 0 103.793V30.2246C0 21.8418 3.12792 14.7102 9.40163 8.82967C15.6753 2.94918 23.2896 0 32.2265 0H67.8669C68.9393 0 69.7972 0.321728 70.4764 0.947311C71.1378 1.5729 71.4774 2.39509 71.4774 3.39603C71.4774 3.64626 71.5489 4.32546 71.674 5.45152C71.7991 6.57757 71.7991 7.507 71.674 8.2577C71.5489 9.0084 71.4059 9.8306 71.2808 10.7064C71.1557 11.5822 70.8161 12.2793 70.2798 12.7619C69.7436 13.2624 68.9393 13.459 67.8847 13.316H32.2265C27.2933 13.316 23.093 15.014 19.6076 18.3922C16.1401 21.7703 14.3348 25.7025 14.2097 30.2067V103.775C14.2097 108.405 16.0149 112.355 19.6076 115.608C23.2181 118.861 27.4184 120.559 32.2265 120.666H67.0626C67.0626 120.666 67.4558 120.666 68.2601 120.666C69.0644 120.666 69.5291 120.791 69.6543 121.041C69.7794 121.292 70.0475 121.47 70.4586 121.613C70.8518 121.739 71.1199 122.042 71.2629 122.543C71.4059 123.061 71.4595 123.562 71.4595 124.062ZM42.8435 67.0089C42.8435 68.7606 43.5764 70.3156 45.042 71.7097L105.706 128.763C107.171 130.014 108.834 130.64 110.71 130.64C112.587 130.64 114.249 130.014 115.715 128.763C117.181 127.512 117.914 125.939 117.914 124.062V93.8554H167.96C169.837 93.8554 171.499 93.1762 172.965 91.7999C174.431 90.4236 175.163 88.8507 175.163 87.117V46.9188C175.163 45.042 174.431 43.487 172.965 42.2358C171.499 40.9847 169.837 40.3055 167.96 40.1803H117.914V9.97359C117.914 8.22195 117.181 6.64906 115.715 5.27278C114.249 3.8965 112.587 3.27091 110.71 3.39603C108.834 3.52114 107.171 4.14673 105.706 5.27278L45.042 62.326C43.5764 63.5593 42.8435 65.1322 42.8435 67.0089Z" fill="#005699"/>
</svg>
