<?xml version="1.0" encoding="UTF-8" standalone="no"?>
<!-- Created with Inkscape (http://www.inkscape.org/) -->

<svg
   width="300"
   height="300"
   viewBox="0 0 79.374998 79.375"
   version="1.1"
   id="svg14968"
   inkscape:version="1.2.1 (9c6d41e410, 2022-07-14)"
   sodipodi:docname="logo-ryhaan.svg"
   xmlns:inkscape="http://www.inkscape.org/namespaces/inkscape"
   xmlns:sodipodi="http://sodipodi.sourceforge.net/DTD/sodipodi-0.dtd"
   xmlns="http://www.w3.org/2000/svg"
   xmlns:svg="http://www.w3.org/2000/svg">
  <sodipodi:namedview
     id="namedview14970"
     pagecolor="#505050"
     bordercolor="#eeeeee"
     borderopacity="1"
     inkscape:showpageshadow="0"
     inkscape:pageopacity="0"
     inkscape:pagecheckerboard="0"
     inkscape:deskcolor="#505050"
     inkscape:document-units="mm"
     showgrid="false"
     inkscape:zoom="1.9603365"
     inkscape:cx="10.457388"
     inkscape:cy="195.37462"
     inkscape:window-width="1920"
     inkscape:window-height="1057"
     inkscape:window-x="-8"
     inkscape:window-y="-8"
     inkscape:window-maximized="1"
     inkscape:current-layer="layer1" />
  <defs
     id="defs14965" />
  <g
     inkscape:label="Layer 1"
     inkscape:groupmode="layer"
     id="layer1">
    <path
       style="fill:#000000;fill-opacity:1;stroke-width:0.207722"
       d="m 68.492718,76.202299 c 0.67777,-0.123693 1.308347,-0.297327 1.400821,-0.386298 0.09136,-0.08906 -0.345569,-0.370265 -0.973541,-0.625163 -4.135083,-1.678282 -9.276838,-5.945163 -13.900446,-11.535434 -2.803046,-3.388936 -3.884703,-4.644389 -7.72493,-8.96501 -0.856371,-0.963211 -6.052938,-6.142902 -7.026274,-7.003461 -2.021764,-1.787026 -5.083421,-3.992084 -6.506326,-4.685836 -3.076615,-1.50013 -7.44663,-2.514467 -10.800841,-2.506988 -1.361662,0.0017 -2.194845,0.233248 -1.902493,0.525617 0.07528,0.07479 1.100235,0.362219 2.278775,0.638716 3.61745,0.848613 6.227728,1.858872 8.092374,3.131703 1.432744,0.978075 4.59239,4.241575 6.194397,6.39845 0.913702,1.230198 4.331763,6.123181 5.512816,7.891737 2.720913,4.075066 6.55652,9.436421 7.577642,10.592158 3.487534,3.947184 6.304337,5.695833 10.355686,6.428934 1.949086,0.352659 5.755978,0.404403 7.42234,0.100968 z m -48.662065,-0.38013 c 0.09137,-0.09034 -0.05722,-0.311296 -0.331409,-0.490743 -0.849849,-0.556988 -1.773689,-2.243528 -2.113526,-3.859939 -0.470153,-2.234577 -0.475875,-44.503356 -0.02315,-48.083195 0.384114,-2.930054 1.113286,-5.50142 2.072666,-7.309801 0.922634,-1.739213 1.113385,-2.007641 2.331282,-3.281939 5.107516,-5.3432966 15.675541,-6.0440142 22.764462,-1.509354 0.637206,0.407564 1.216793,0.83555 1.288377,0.951127 0.16976,0.275478 0.520845,0.270355 0.520845,-0.0072 0,-0.443938 -1.520587,-2.5743296 -2.560683,-3.5878936 C 39.604978,4.5758222 31.769316,2.1954159 25.879618,3.2053306 16.592039,4.7977341 11.638725,10.256797 9.8527923,20.867778 9.495581,22.990721 9.4693839,24.765442 9.4693839,46.826814 v 23.680312 l 0.4742673,1.173022 c 0.9522498,2.354572 2.9540358,3.921067 5.5497588,4.342619 1.16077,0.188398 4.063406,0.05389 4.320918,-0.200311 z M 68.447234,68.811077 C 67.822681,67.833788 61.127106,58.815239 59.373296,56.589368 58.47315,55.446889 57.302946,53.959652 56.772354,53.284387 50.968896,45.896718 46.508727,41.931547 42.11201,40.251809 l -1.232452,-0.470894 1.803403,-0.354892 c 4.819781,-0.948701 8.469959,-2.855349 11.387755,-5.948254 2.682162,-2.843267 3.832688,-5.162213 4.327847,-8.723318 C 59.03898,20.15097 56.923349,14.438842 53.258712,10.87626 52.206869,9.8535634 50.052185,8.2940004 49.691565,8.2940004 c -0.268046,0 -0.289442,0.347422 -0.02995,0.507075 0.321964,0.198944 1.453631,2.3377776 1.987826,3.7566146 1.702607,4.52346 1.624102,9.801636 -0.206495,13.941957 -1.164485,2.63364 -3.593349,5.522209 -6.434744,7.653766 -2.839984,2.130298 -7.933044,4.229228 -12.15186,5.007923 -1.085174,0.200311 -2.051182,0.430149 -2.145953,0.510701 -0.09437,0.08054 0.559503,0.309248 1.454126,0.50823 2.304174,0.51241 4.479944,1.271155 6.391376,2.228782 5.997821,3.004972 9.841261,6.529005 19.543678,17.919307 2.808156,3.29665 5.19998,5.695733 6.980194,7.001221 1.315176,0.96469 3.546461,2.269916 3.669951,2.14674 0.0412,-0.04179 -0.09137,-0.341161 -0.300602,-0.66524 z M 28.284849,38.714216 c 0.513927,-0.07978 1.635744,-0.379715 2.492619,-0.666306 5.418841,-1.812314 9.872486,-5.12646 12.46399,-9.275613 1.485753,-2.378801 1.968051,-3.933936 1.970563,-6.353193 0,-3.011673 -0.953857,-5.233827 -3.236547,-7.516646 -1.049536,-1.049816 -3.997344,-3.077181 -4.473922,-3.077181 -0.337823,0 -0.328299,0.358312 -0.107422,0.567292 0.08936,0.08435 0.176291,0.175116 0.230096,0.311489 0.932375,1.458565 1.715156,3.644136 2.039033,5.432759 0.560508,3.324877 -0.172079,6.983538 -2.072765,10.367164 -2.030897,3.613083 -5.656178,7.073651 -9.603925,9.168148 -0.788909,0.418489 -1.522096,0.814991 -1.629016,0.881084 -0.270053,0.166798 0.298776,0.493128 0.68088,0.39024 0.172079,-0.04603 0.732386,-0.149395 1.246408,-0.229228 z"
       id="path7431"
       sodipodi:nodetypes="ssssssssssssssssssssssssssssscsssssssscssssssssssssssssssssssssssccsssss" />
  </g>
</svg>
