<?xml version="1.0" encoding="UTF-8" standalone="no"?>
<!-- Generator: Adobe Illustrator 19.2.1, SVG Export Plug-In . SVG Version: 6.00 Build 0)  -->

<svg
   version="1.1"
   id="layer"
   x="0px"
   y="0px"
   viewBox="0 0 600 140.8"
   xml:space="preserve"
   sodipodi:docname="logo-rotana.svg"
   inkscape:version="1.2.1 (9c6d41e410, 2022-07-14)"
   width="600"
   height="140.8"
   xmlns:inkscape="http://www.inkscape.org/namespaces/inkscape"
   xmlns:sodipodi="http://sodipodi.sourceforge.net/DTD/sodipodi-0.dtd"
   xmlns="http://www.w3.org/2000/svg"
   xmlns:svg="http://www.w3.org/2000/svg"><defs
   id="defs312" /><sodipodi:namedview
   id="namedview310"
   pagecolor="#505050"
   bordercolor="#eeeeee"
   borderopacity="1"
   inkscape:showpageshadow="0"
   inkscape:pageopacity="0"
   inkscape:pagecheckerboard="0"
   inkscape:deskcolor="#505050"
   showgrid="false"
   inkscape:zoom="1.1932515"
   inkscape:cx="229.20566"
   inkscape:cy="74.586118"
   inkscape:window-width="1920"
   inkscape:window-height="1057"
   inkscape:window-x="-8"
   inkscape:window-y="-8"
   inkscape:window-maximized="1"
   inkscape:current-layer="layer" />
<style
   type="text/css"
   id="style295">
	.st0{fill:#005E98;}
</style>
<path
   class="st0"
   d="m 368.5,119.8 c -6.4,8 -16.9,14 -25.6,14 -13.3,0 -20.4,-6 -20.4,-19.4 0,-21.4 28.8,-26 46,-30.9 m 15.6,-10.7 c 0,-19.2 -13.5,-29.9 -34.3,-29.9 -12.6,0 -25.9,4.3 -35,11.1 v 9.3 c 5.3,-6 16,-13.8 28.9,-13.8 17.9,0 24.9,7.6 24.9,23.3 l -0.9,6 c -6.9,4.9 -62.5,5.8 -62.5,38.5 0,14.2 12.8,23.5 27.9,23.5 16.7,0 24.5,-4.5 35.7,-14.6 1.1,7.8 6.3,11.9 15.5,12.3 -0.1,0 -0.2,-57.8 -0.2,-65.7"
   id="path297"
   style="fill:#000000" />
<path
   class="st0"
   d="M 55.7,74.2 C 74.6,68.8 85,55.8 85,36.8 85,18.4 68.6,0 33.4,0 H 0 c 0,0 0.1,87.8 0,121.8 v 0.1 C 0,131.4 6.3,139 15.8,139 V 139 7 L 11.6,5.9 h 10 C 53.7,5.2 68.9,22 68.9,38.4 68.9,54.9 57.2,69.3 37,73.5 c 0,0 28.7,44.4 34,52.5 5.2,7.6 14.7,13.3 22.9,13.3 v 0 0 h 5.7 C 83.7,116.6 65.5,91 55.7,74.2"
   id="path299"
   style="fill:#000000" />
<path
   class="st0"
   d="m 584.4,119.8 c -6.4,8 -16.9,14 -25.6,14 -13.3,0 -20.4,-6 -20.4,-19.4 0,-21.4 28.8,-26 46,-30.9 m 15.5,-10.7 c 0,-19.2 -13.5,-29.9 -34.3,-29.9 -12.6,0 -25.9,4.3 -35,11.1 v 9.3 c 5.3,-6 16,-13.8 28.9,-13.8 17.9,0 24.9,7.6 24.9,23.3 l -0.9,6 c -6.9,4.9 -62.5,5.8 -62.5,38.5 0,14.2 12.8,23.5 27.9,23.5 16.7,0 24.5,-4.5 35.7,-14.6 1.1,7.8 6.3,11.9 15.4,12.3 0,-0.1 -0.1,-62.3 -0.1,-65.7"
   id="path301"
   style="fill:#000000" />
<path
   class="st0"
   d="m 463.2,44.5 c -18.6,0 -31,8.9 -38.2,22.6 v -5.8 c -0.8,-7.7 -7.3,-13.8 -15.3,-13.8 v 0 c 0,8.1 -0.1,77.9 -0.1,77.9 1,7.5 7.5,13.3 15.2,13.3 v 0 c 0,-10.9 0.1,-46.8 0.1,-46.8 0,-23.3 12.4,-40.6 32.1,-40.6 23.1,0 26.5,16.5 26.5,29.9 v 43.7 c 0.8,7.7 7.4,13.8 15.3,13.8 v 0 c 0,-10.8 0.1,-58.9 0.1,-58.9 C 499,55.4 486.4,44.5 463.2,44.5"
   id="path303"
   style="fill:#000000" />
<path
   class="st0"
   d="m 277.9,136.2 c -17.4,0 -18.3,-14 -18.3,-26.4 V 53.5 l -4.4,-1.2 h 27.7 v -5 h -23.5 v -9 c -0.8,-7.7 -7.3,-13.8 -15.3,-13.8 v 0 c 0,7.2 0,14.8 0,22.8 h -15.4 v 5 H 244 V 117 c 0,14.2 8.9,23.1 25,23.1 5.9,0 12.1,-1 17.9,-2.7 v -2.5 c -3.1,0.7 -6,1.3 -9,1.3"
   id="path305"
   style="fill:#000000" />
<path
   class="st0"
   d="m 163.8,137.5 c -0.3,-6.1 -1.1,-12.1 -2.5,-17.8 1,-3.5 2.3,-6.9 3.8,-10.2 1,3 1.9,6 2.6,9 -1.9,6 -3.2,12.3 -3.9,19 m -7,-32.7 c 1,-2.5 2.1,-4.9 3.3,-7.3 1.2,2.4 2.3,4.8 3.3,7.3 -1.3,3.2 -2.4,6.4 -3.3,9.8 -1,-3.4 -2.1,-6.6 -3.3,-9.8 m -0.5,32.7 c -0.6,-6.6 -2,-13 -3.9,-19 0.7,-3.1 1.6,-6.1 2.6,-9 1.5,3.3 2.7,6.7 3.8,10.2 -1.3,5.7 -2.1,11.7 -2.5,17.8 m 59.5,-46.9 c -0.3,-2.8 -0.8,-5.6 -1.5,-8.2 -20.7,6.2 -37,25.4 -42.4,49.9 -0.3,-4.5 -0.8,-9 -1.6,-13.3 v -0.1 l 0.1,-0.3 c 1.3,-3.3 13.1,-32.1 42.6,-40.2 -0.8,-2.6 -1.7,-5.1 -2.8,-7.4 -18.3,6.7 -33.1,22.4 -41,42.8 -0.6,-2.8 -1.4,-5.7 -2.2,-8.4 v 0 0 -0.1 c 8.4,-16.1 22.5,-33 40.7,-38.5 -1.4,-2.3 -2.9,-4.7 -4.7,-6.7 -16.2,7.8 -29.5,22.1 -37.8,40.1 -0.9,-2.4 -1.8,-4.8 -2.8,-7.1 v 0 0 C 170,77.8 184,63.7 199.1,56.3 c -2.2,-2 -4.5,-3.7 -7,-5.4 -13.2,8.7 -24.4,21.5 -32.2,36.9 -7.7,-15.3 -18.8,-28 -31.9,-36.7 -2.6,1.6 -5,3.3 -7.3,5.2 25.5,12.3 36.7,36.8 36.7,36.8 -1,2.3 -2,4.7 -2.8,7.1 -8.3,-18.1 -21.7,-32.4 -38,-40.2 -2.5,2.6 -3.8,4.4 -5.3,6.5 26.8,7.6 41.5,38.9 41.5,38.9 -0.9,2.8 -1.6,5.6 -2.2,8.5 -8,-20.6 -23.3,-36.6 -41.8,-43.2 -1.2,2.3 -2.2,4.8 -3.1,7.4 32.2,8.2 43.8,40.9 43.8,40.9 -0.8,4.3 -1.3,8.8 -1.6,13.3 -5.4,-24.9 -22.2,-44.4 -43.4,-50.2 -0.6,2.7 -0.9,5.5 -1,8.4 22.5,5.2 40,24.5 44,48.7 l 2.2,0.4 c 0,-5 0.9,-13 1.4,-16.1 l 0.1,0.3 v -0.1 c 1.5,5.4 2.6,11 3.6,16.6 l 2.5,0.2 c 0.2,-4.2 0.9,-13.3 2.5,-18 0,0 2.3,11.1 2.6,18.1 h 0.9 l 1.5,-0.1 c 1,-5.7 2.2,-11.3 3.7,-16.9 0.8,5.3 1.4,10.8 1.5,16.2 l 2.2,-0.4 C 176.3,115.1 193.6,96 215.8,90.6 M 161.3,48.3 c 6.9,0 13.5,1.9 19.4,5.1 2.8,-2.4 5.1,-4.2 6.5,-5.2 -7.6,-3.6 -16.3,-5.5 -25.9,-5.5 -10.1,0 -19.3,2.1 -27.3,5.6 1.5,1.1 3.8,2.9 6.5,5.2 6.2,-3.3 13.2,-5.2 20.8,-5.2 m 42.6,53.1 c -3.1,15.3 -13.1,25.7 -24.6,30.9 -0.8,2.2 -1.3,4 -1.6,5.3 20.7,-6.2 36.2,-22.1 38.3,-41.4 -4.6,1.3 -8.6,3.1 -12.1,5.2 m -87,0.2 c -3.7,-2.2 -7.9,-4.1 -12.7,-5.6 2.1,19.6 17.8,35.6 38.7,41.7 -0.4,-1.4 -0.9,-3.5 -1.9,-6.1 -12,-5.8 -21,-16.8 -24.1,-30"
   id="path307"
   style="fill:#000000" />
</svg>
