<svg width="176" height="134" viewBox="0 0 176 134" fill="none" xmlns="http://www.w3.org/2000/svg">
<path d="M71.4595 124.062C71.4595 124.312 71.531 125.009 71.6561 126.118C71.7812 127.244 71.7812 128.12 71.6561 128.745C71.531 129.371 71.388 130.247 71.2629 131.373C71.1378 132.499 70.7982 133.178 70.262 133.428C69.7258 133.678 68.9214 133.857 67.8669 134H32.2265C23.2896 134 15.6753 131.051 9.40163 125.17C3.12792 119.308 0 112.176 0 103.793V30.2246C0 21.8418 3.12792 14.7102 9.40163 8.82967C15.6753 2.94918 23.2896 0 32.2265 0H67.8669C68.9393 0 69.7972 0.321728 70.4764 0.947311C71.1378 1.5729 71.4774 2.39509 71.4774 3.39603C71.4774 3.64626 71.5489 4.32546 71.674 5.45152C71.7991 6.57757 71.7991 7.507 71.674 8.2577C71.5489 9.0084 71.4059 9.8306 71.2808 10.7064C71.1557 11.5822 70.8161 12.2793 70.2798 12.7619C69.7436 13.2624 68.9393 13.459 67.8847 13.316H32.2265C27.2933 13.316 23.093 15.014 19.6076 18.3922C16.1401 21.7703 14.3348 25.7025 14.2097 30.2067V103.775C14.2097 108.405 16.0149 112.355 19.6076 115.608C23.2181 118.861 27.4184 120.559 32.2265 120.666H67.0626C67.0626 120.666 67.4558 120.666 68.2601 120.666C69.0644 120.666 69.5291 120.791 69.6543 121.041C69.7794 121.292 70.0475 121.47 70.4586 121.613C70.8518 121.739 71.1199 122.042 71.2629 122.543C71.4059 123.061 71.4595 123.562 71.4595 124.062ZM175.163 67.0089C175.163 68.7606 174.431 70.3156 172.965 71.7097L112.301 128.763C110.836 130.014 109.173 130.64 107.297 130.64C105.42 130.64 103.757 130.014 102.292 128.763C100.826 127.512 100.093 125.939 100.093 124.062V93.8554H50.0467C48.1699 93.8554 46.5077 93.1762 45.042 91.7999C43.5764 90.4236 42.8435 88.8507 42.8435 87.117V46.9188C42.8435 45.042 43.5764 43.487 45.042 42.2358C46.5077 40.9847 48.1699 40.3055 50.0467 40.1803H100.093V9.97359C100.093 8.22195 100.826 6.64906 102.292 5.27278C103.757 3.89649 105.42 3.27091 107.297 3.39603C109.173 3.52114 110.836 4.14673 112.301 5.27278L172.965 62.326C174.431 63.5593 175.163 65.1322 175.163 67.0089Z" fill="#005699"/>
</svg>
