<?xml version="1.0" encoding="UTF-8" standalone="no"?>
<svg
   width="176"
   height="134"
   viewBox="0 0 176 134"
   fill="none"
   version="1.1"
   id="svg185"
   sodipodi:docname="login.svg"
   inkscape:version="1.2.1 (9c6d41e410, 2022-07-14)"
   xmlns:inkscape="http://www.inkscape.org/namespaces/inkscape"
   xmlns:sodipodi="http://sodipodi.sourceforge.net/DTD/sodipodi-0.dtd"
   xmlns="http://www.w3.org/2000/svg"
   xmlns:svg="http://www.w3.org/2000/svg">
  <defs
     id="defs189" />
  <sodipodi:namedview
     id="namedview187"
     pagecolor="#505050"
     bordercolor="#eeeeee"
     borderopacity="1"
     inkscape:showpageshadow="0"
     inkscape:pageopacity="0"
     inkscape:pagecheckerboard="0"
     inkscape:deskcolor="#505050"
     showgrid="false"
     inkscape:zoom="5.8059701"
     inkscape:cx="56.751929"
     inkscape:cy="67.000001"
     inkscape:window-width="1920"
     inkscape:window-height="1057"
     inkscape:window-x="-8"
     inkscape:window-y="-8"
     inkscape:window-maximized="1"
     inkscape:current-layer="svg185" />
  <path
     d="m 103.7035,124.062 c 0,0.25 -0.0715,0.947 -0.1966,2.056 -0.1251,1.126 -0.1251,2.002 0,2.627 0.1251,0.626 0.2681,1.501 0.3932,2.628 0.1251,1.126 0.4647,1.805 1.0009,2.055 0.5363,0.25 1.3406,0.429 2.3951,0.572 h 35.6404 c 8.9369,0 16.5512,-2.949 22.82487,-8.83 6.27371,-5.862 9.40163,-12.994 9.40163,-21.377 V 30.2246 c 0,-8.3828 -3.12792,-15.5144 -9.40163,-21.39493 C 159.4877,2.94918 151.8734,0 142.9365,0 h -35.6404 c -1.0724,0 -1.9303,0.321728 -2.6095,0.947311 -0.6614,0.625589 -1.001,1.447779 -1.001,2.448719 0,0.25023 -0.0715,0.92943 -0.1966,2.05549 -0.1251,1.12605 -0.1251,2.05548 0,2.80618 0.1251,0.7507 0.2681,1.5729 0.3932,2.4487 0.1251,0.8758 0.4647,1.5729 1.001,2.0555 0.5362,0.5005 1.3405,0.6971 2.3951,0.5541 h 35.6582 c 4.9332,0 9.1335,1.698 12.6189,5.0762 3.4675,3.3781 5.2728,7.3103 5.3979,11.8145 v 73.5683 c 0,4.63 -1.8052,8.58 -5.3979,11.833 -3.6105,3.253 -7.8108,4.951 -12.6189,5.058 h -34.8361 c 0,0 -0.3932,0 -1.1975,0 -0.8043,0 -1.269,0.125 -1.3942,0.375 -0.1251,0.251 -0.3932,0.429 -0.8043,0.572 -0.3932,0.126 -0.6613,0.429 -0.8043,0.93 -0.143,0.518 -0.1966,1.019 -0.1966,1.519 z m 28.616,-57.0531 c 0,1.7517 -0.7329,3.3067 -2.1985,4.7008 L 69.457,128.763 c -1.465,1.251 -3.128,1.877 -5.004,1.877 -1.877,0 -3.539,-0.626 -5.005,-1.877 -1.466,-1.251 -2.199,-2.824 -2.199,-4.701 V 93.8554 H 7.203 c -1.877,0 -3.539,-0.6792 -5.005,-2.0555 C 0.732,90.4236 0,88.8507 0,87.117 V 46.9188 C 0,45.042 0.732,43.487 2.198,42.2358 3.664,40.9847 5.326,40.3055 7.203,40.1803 H 57.249 V 9.97359 c 0,-1.75164 0.733,-3.32453 2.199,-4.70081 1.466,-1.37628 3.128,-2.00187 5.005,-1.87675 1.876,0.12511 3.539,0.7507 5.004,1.87675 L 130.121,62.326 c 1.4656,1.2333 2.1985,2.8062 2.1985,4.6829 z"
     fill="#005699"
     id="path183"
     style="fill:#000000" />
</svg>
