<?xml version="1.0" encoding="UTF-8" standalone="no"?>
<!-- Created with Inkscape (http://www.inkscape.org/) -->

<svg
   width="247.64998mm"
   height="27.781206mm"
   viewBox="0 0 247.64998 27.781206"
   version="1.1"
   id="svg5"
   xml:space="preserve"
   inkscape:version="1.2.1 (9c6d41e410, 2022-07-14)"
   sodipodi:docname="logo-ryhaan_dubai.svg"
   xmlns:inkscape="http://www.inkscape.org/namespaces/inkscape"
   xmlns:sodipodi="http://sodipodi.sourceforge.net/DTD/sodipodi-0.dtd"
   xmlns="http://www.w3.org/2000/svg"
   xmlns:svg="http://www.w3.org/2000/svg"><sodipodi:namedview
     id="namedview7"
     pagecolor="#505050"
     bordercolor="#eeeeee"
     borderopacity="1"
     inkscape:showpageshadow="0"
     inkscape:pageopacity="0"
     inkscape:pagecheckerboard="0"
     inkscape:deskcolor="#505050"
     inkscape:document-units="mm"
     showgrid="false"
     inkscape:zoom="2.7723345"
     inkscape:cx="5.5909559"
     inkscape:cy="2.8856547"
     inkscape:window-width="1920"
     inkscape:window-height="1057"
     inkscape:window-x="-8"
     inkscape:window-y="-8"
     inkscape:window-maximized="1"
     inkscape:current-layer="layer1" /><defs
     id="defs2" /><g
     inkscape:label="Layer 1"
     inkscape:groupmode="layer"
     id="layer1"
     transform="translate(27.491322,-43.689196)"><path
       style="fill:#000000;stroke-width:0.264583;fill-opacity:1"
       d="m 79.664925,71.370183 c 0,-0.0551 0.9572,-1.78963 2.12712,-3.85446 l 2.127116,-3.75422 -0.59847,-0.97419 c -0.32916,-0.5358 -2.056166,-3.23638 -3.837786,-6.00127 l -3.239315,-5.02709 1.464245,-0.0799 c 2.24473,-0.12247 2.78077,0.3193 5.653576,4.65931 2.26215,3.41749 2.53993,3.73915 2.85615,3.30729 0.19265,-0.2631 1.3272,-2.23281 2.52122,-4.37713 1.57648,-2.8312 2.30546,-3.89981 2.66226,-3.9026 0.35804,-0.003 0.44358,0.12058 0.31531,0.45483 -0.0968,0.25227 -2.62927,4.77664 -5.6277,10.05416 -4.065996,7.15653 -5.575236,9.59549 -5.937716,9.59549 -0.26731,0 -0.48601,-0.0451 -0.48601,-0.10023 z m -93.79479,-7.81841 c -1.77712,-0.42887 -2.392194,-1.03923 -5.253656,-5.21336 l -2.019237,-2.94555 1.235746,-0.31117 c 0.815665,-0.20538 1.579642,-0.65506 2.247384,-1.3228 0.88847,-0.88847 1.011638,-1.16464 1.011638,-2.26831 0,-2.65786 -1.864891,-4.09714 -5.309056,-4.09739 l -1.966985,-1.5e-4 0.07363,8.06994 c 0.07316,8.01807 0.0701,8.06993 -0.47616,8.06993 -0.891208,0 -2.072083,-0.74475 -2.503408,-1.57884 -0.331727,-0.64149 -0.401353,-2.1095 -0.401353,-8.46218 v -7.68606 l 3.902603,0.004 c 4.343434,0.005 6.261334,0.3385 8.085778,1.40769 1.556132,0.91196 2.299118,2.12302 2.299118,3.74755 0,1.69016 -0.715831,2.77503 -2.440752,3.69904 -0.767638,0.41121 -1.430129,0.77376 -1.472201,0.80567 -0.04207,0.0319 1.096854,1.76983 2.530945,3.86207 1.434093,2.09223 2.695933,3.95289 2.804089,4.13479 0.221405,0.37236 -0.977541,0.41577 -2.348123,0.085 z m 10.012825,-0.0133 c -5.5159403,-1.174 -7.407382,-7.01701 -3.487573,-10.77374 1.50005,-1.43765 3.204697,-2.04383 5.777873,-2.05463 1.94092705,-0.008 2.45639905,0.0924 3.763499,0.73428 3.480218,1.709 4.82048,5.22589 3.264852,8.56706 -0.702114,1.508 -2.213985,2.79855 -3.823612,3.26387 -1.38022795,0.39901 -4.218213,0.53492 -5.495039,0.26316 z m 4.70102405,-2.27674 c 1.26590695,-1.20348 1.65518295,-2.1633 1.65423795,-4.07879 -0.0016,-3.07548 -1.60222295,-5.02708 -4.12321,-5.02708 -2.376173,0 -3.906769,1.76169 -4.098915,4.71776 -0.0957,1.47235 -0.01294,1.96133 0.49988,2.95302 0.895157,1.7311 2.108004,2.45931 3.861575,2.31855 1.08829205,-0.0874 1.57330005,-0.28155 2.20643205,-0.88346 z m 10.28927495,2.36646 c -1.895896,-0.37388 -2.645833,-0.67284 -2.645833,-1.05474 0,-0.34066 0.190018,-0.37247 1.124479,-0.18824 0.618463,0.12193 2.098307,0.22169 3.288543,0.22169 1.785234,0 2.294721,-0.0973 2.910417,-0.55571 0.902766,-0.67217 1.068252,-1.44667 0.42727,-1.99967 -0.261067,-0.22523 -1.605762,-0.86258 -2.988209,-1.41633 -3.026212,-1.21217 -3.794369,-1.71541 -4.232299,-2.77267 -0.761645,-1.83877 0.342074,-3.81351 2.623653,-4.69415 2.151809,-0.83055 7.641886,-0.40306 7.269988,0.56608 -0.107352,0.27976 -0.379362,0.30249 -1.245696,0.10408 -0.609594,-0.13961 -1.984417,-0.21165 -3.055156,-0.1601 -1.743136,0.0839 -2.013011,0.1707 -2.579688,0.8295 -0.348088,0.40467 -0.632886,0.84356 -0.632886,0.97529 0,0.5024 1.105633,1.23227 2.815463,1.85859 3.260376,1.19431 4.419404,1.88916 4.944864,2.96451 0.605271,1.23869 0.410086,2.2971 -0.645284,3.4991 -0.424479,0.48346 -1.276279,1.08113 -1.89289,1.32817 -1.131147,0.45318 -4.264485,0.73563 -5.486736,0.4946 z m 15.386348,-0.20104 c -2.044917,-0.51914 -3.474558,-1.61325 -4.358285,-3.33543 -0.650774,-1.2682 -0.734743,-1.6928 -0.65845,-3.32952 0.07084,-1.51975 0.227515,-2.08761 0.825153,-2.9907 2.382385,-3.60003 8.489781,-4.22291 12.034022,-1.22733 1.118791,0.9456 1.895047,2.47841 2.090383,4.1277 l 0.154535,1.30482 -6.056124,0.0209 c -3.330869,0.0115 -5.907296,0.0809 -5.725395,0.15434 0.181901,0.0734 0.332687,0.45095 0.335081,0.83901 0.0063,1.01721 1.046597,2.70585 2.116344,3.43522 0.807963,0.55088 1.151107,0.61455 2.774095,0.51474 1.018646,-0.0626 2.305516,-0.32911 2.859712,-0.59215 0.668634,-0.31735 1.096232,-0.38964 1.27099,-0.21489 0.174757,0.17476 -0.182618,0.45522 -1.06226,0.83363 -1.697424,0.73021 -4.708131,0.93991 -6.599801,0.45967 z m 6.838651,-7.24648 c 0,-0.40573 -0.267891,-1.26797 -0.595313,-1.91609 -1.603975,-3.17503 -5.407482,-3.17503 -7.011458,0 -0.327421,0.64812 -0.595312,1.51036 -0.595312,1.91609 v 0.73769 h 4.101041 4.101042 z m 24.209374,7.37113 c -1.777122,-0.42887 -2.392193,-1.03923 -5.253657,-5.21336 l -2.019236,-2.94555 1.235744,-0.31117 c 0.815666,-0.20538 1.579645,-0.65506 2.247384,-1.3228 0.888471,-0.88847 1.01164,-1.16464 1.01164,-2.26831 0,-2.65786 -1.864892,-4.09714 -5.309055,-4.09739 l -1.966987,-1.5e-4 0.07363,8.06994 c 0.07315,8.01807 0.0701,8.06993 -0.47616,8.06993 -0.891209,0 -2.072084,-0.74475 -2.503408,-1.57884 -0.331726,-0.64149 -0.401354,-2.1095 -0.401354,-8.46218 v -7.68606 l 3.902604,0.004 c 4.343434,0.005 6.261332,0.3385 8.085777,1.40769 1.588344,0.93084 2.299118,2.11665 2.299118,3.83572 0,1.13594 -0.131659,1.49858 -0.834845,2.29947 -0.459166,0.52296 -1.322369,1.19658 -1.918229,1.49693 -0.59586,0.30036 -1.117806,0.57581 -1.159878,0.61213 -0.04207,0.0363 1.096852,1.77784 2.530946,3.87008 1.434092,2.09223 2.69593,3.95289 2.804089,4.13479 0.221403,0.37236 -0.977543,0.41577 -2.348124,0.085 z m 6.301401,-0.25277 c -2.615332,-1.22447 -2.569861,-4.77684 0.07572,-5.915 0.567169,-0.244 2.251607,-0.82172 3.743196,-1.28381 2.894221,-0.89662 3.008645,-1.0157 2.29753,-2.39084 -0.822087,-1.58974 -3.575034,-2.03342 -5.758418,-0.92805 l -1.235466,0.62547 v -0.64011 c 0,-0.52107 0.282905,-0.7713 1.521354,-1.34562 1.251548,-0.58039 1.896737,-0.70486 3.63802,-0.70181 2.542977,0.004 4.223684,0.65244 5.183757,1.99856 0.609671,0.85482 0.64081,1.10665 0.723836,5.85419 l 0.08676,4.96093 -0.615929,-9.8e-4 c -0.779973,-10e-4 -2.214702,-0.86601 -2.585116,-1.55814 -0.279067,-0.52143 -0.292926,-0.52007 -0.955442,0.0939 -1.675286,1.5526 -4.303898,2.08147 -6.119799,1.23129 z m 4.762346,-1.38665 c 1.527707,-0.78682 1.768544,-1.25699 1.768544,-3.45264 0,-1.1388 -0.100423,-2.07055 -0.223163,-2.07055 -0.12274,0 -0.920732,0.24 -1.773317,0.53333 -2.535605,0.87238 -3.569996,2.19792 -3.0187,3.86837 0.160803,0.48724 0.4918,1.00225 0.735547,1.14447 0.600649,0.35046 1.807456,0.33941 2.511089,-0.023 z m 27.542972,1.50906 c -0.4489,-0.19545 -1.07398,-0.6831 -1.38906,-1.08365 -0.56183,-0.71425 -0.57287,-0.90106 -0.57287,-9.68845 0,-5.98293 0.0907,-8.960147 0.27308,-8.960147 0.662,0 2.06734,0.79067 2.59291,1.458828 0.52078,0.662059 0.57359,1.042099 0.57359,4.127649 v 3.39845 l 1.21221,-0.85444 c 1.07853,-0.76022 1.406769,-0.85337 2.976559,-0.84466 2.79021,0.0155 5.11614,1.59267 5.98643,4.05936 0.48447,1.37313 0.59836,8.76315 0.13505,8.76315 -0.66201,0 -2.06734,-0.79067 -2.59291,-1.45883 -0.48988,-0.62278 -0.57359,-1.06962 -0.57359,-3.06175 0,-3.23508 -0.38353,-4.81232 -1.44345,-5.93617 -1.58006,-1.67535 -3.703239,-1.12522 -4.968919,1.28749 -0.5014,0.95578 -0.59057,1.62676 -0.68235,5.13436 -0.0732,2.79717 -0.19835,4.03172 -0.40803,4.02454 -0.16635,-0.006 -0.66975,-0.17027 -1.11865,-0.36573 z m 16.113429,-0.12241 c -1.774,-0.83056 -2.43717,-2.79154 -1.53443,-4.53725 0.50507,-0.97669 1.10931,-1.28316 4.95646,-2.51389 2.0192,-0.64595 3.10886,-1.12466 3.10886,-1.3658 0,-0.20419 -0.18651,-0.73191 -0.41445,-1.17271 -0.82209,-1.58974 -3.57504,-2.03342 -5.75842,-0.92805 l -1.23547,0.62547 v -0.64011 c 0,-0.52107 0.28291,-0.7713 1.52136,-1.34562 1.25154,-0.58039 1.89673,-0.70486 3.63802,-0.70181 2.54297,0.004 4.22368,0.65244 5.18375,1.99856 0.60967,0.85482 0.64081,1.10665 0.72384,5.85419 l 0.0868,4.96093 -0.61593,-9.8e-4 c -0.77997,-10e-4 -2.2147,-0.86601 -2.58511,-1.55814 -0.27907,-0.52143 -0.29293,-0.52007 -0.95545,0.0939 -1.67528,1.5526 -4.30389,2.08147 -6.11979,1.23129 z m 4.76234,-1.38665 c 1.52771,-0.78682 1.76855,-1.25699 1.76855,-3.45264 0,-1.1388 -0.10043,-2.07055 -0.22317,-2.07055 -0.12274,0 -0.92073,0.24 -1.77331,0.53333 -2.53561,0.87238 -3.57,2.19792 -3.0187,3.86837 0.1608,0.48724 0.4918,1.00225 0.73554,1.14447 0.60065,0.35046 1.80746,0.33941 2.51109,-0.023 z m 9.52515,1.37096 c -2.61676,-1.18805 -2.57091,-4.76069 0.0757,-5.89931 0.56717,-0.244 2.25161,-0.82172 3.7432,-1.28381 2.89422,-0.89662 3.00864,-1.0157 2.29753,-2.39084 -0.82209,-1.58974 -3.57504,-2.03342 -5.75842,-0.92805 l -1.23547,0.62547 v -0.64011 c 0,-0.52107 0.28291,-0.7713 1.52136,-1.34562 1.25154,-0.58039 1.89673,-0.70486 3.63802,-0.70181 2.54297,0.004 4.22368,0.65244 5.18375,1.99856 0.60967,0.85482 0.64081,1.10665 0.72384,5.85419 0.0859,4.91089 0.0811,4.96093 -0.47616,4.96093 -0.77024,0 -2.00995,-0.67355 -2.48314,-1.34912 l -0.39112,-0.5584 -1.15139,0.79217 c -2.04872,1.40957 -3.87698,1.68785 -5.68772,0.86575 z m 4.76235,-1.37096 c 1.52771,-0.78682 1.76854,-1.25699 1.76854,-3.45264 0,-1.1388 -0.10042,-2.07055 -0.22316,-2.07055 -0.12274,0 -0.92073,0.24 -1.77332,0.53333 -2.5356,0.87238 -3.56999,2.19792 -3.01869,3.86837 0.1608,0.48724 0.49179,1.00225 0.73554,1.14447 0.60065,0.35046 1.80746,0.33941 2.51109,-0.023 z m 9.73819,1.43273 c -1.72715,-0.85085 -1.88213,-1.43963 -1.88324,-7.15435 -6.8e-4,-3.52521 0.0885,-5.09323 0.28975,-5.09323 0.6214,0 2.15031,0.90363 2.54304,1.50301 l 0.4129,0.63017 0.93659,-0.9366 c 2.64399,-2.64399 7.63106,-1.37634 9.34463,2.37529 0.39971,0.87513 0.4844,1.75682 0.48921,5.09323 0.004,2.75909 -0.0861,4.0349 -0.28494,4.0349 -0.70788,0 -2.19565,-0.95368 -2.64992,-1.69862 -0.3895,-0.63874 -0.49715,-1.33368 -0.49793,-3.2143 -0.002,-4.47637 -1.24525,-6.66114 -3.63756,-6.39149 -1.38526,0.15614 -2.08351,0.73046 -2.80671,2.30857 -0.45143,0.98509 -0.56397,1.86434 -0.65188,5.09323 -0.0732,2.68968 -0.20009,3.90073 -0.40815,3.89658 -0.16604,-0.003 -0.70415,-0.20419 -1.19579,-0.44639 z m 27.48452,-6.13679 v -5.58163 h 3.00066 c 3.35982,0 4.92737,0.35598 6.35181,1.44246 2.36122,1.80099 2.72964,5.55081 0.75101,7.64375 -1.47677,1.56209 -2.4865,1.87111 -6.46546,1.97868 l -3.63802,0.0984 z m 7.04615,3.74829 c 2.37215,-1.68912 2.38197,-5.81593 0.018,-7.578 -0.55481,-0.41356 -1.23632,-0.57738 -2.71198,-0.65189 l -1.97094,-0.0995 v 4.55575 4.55576 l 1.9194,-0.0969 c 1.45195,-0.0733 2.12058,-0.24018 2.7455,-0.68516 z m 9.29427,1.42009 c -1.4487,-0.53753 -2.27697,-1.14585 -2.85831,-2.09928 -0.44935,-0.73695 -0.51568,-1.34665 -0.51654,-4.74812 -5.3e-4,-2.29758 0.10271,-3.90261 0.25115,-3.90261 0.61146,0 1.56586,0.64078 1.83535,1.23225 0.16157,0.35461 0.29421,1.91905 0.29475,3.47656 10e-4,3.1807 0.37225,4.18375 1.82626,4.93564 1.49916,0.77525 3.69771,0.36175 4.93467,-0.92812 l 0.77871,-0.81201 0.0852,-3.95216 c 0.0811,-3.76047 0.11112,-3.95216 0.61957,-3.95216 0.51615,0 0.53129,0.13381 0.44396,3.9227 -0.086,3.7298 -0.12503,3.97497 -0.7944,4.98573 -0.3872,0.58467 -1.16111,1.28342 -1.71979,1.55277 -1.2949,0.62429 -3.88699,0.7688 -5.18059,0.28881 z m 9.58874,-5.19376 v -5.55625 l 2.84428,0.006 c 4.07121,0.008 5.62239,0.79216 5.62239,2.84109 0,0.75511 -0.63833,1.54953 -1.69805,2.11328 -0.45841,0.24386 -0.42833,0.28731 0.31143,0.44979 1.25181,0.27494 2.18037,1.35153 2.18037,2.52793 0,2.23726 -1.88884,3.1746 -6.39713,3.1746 h -2.86329 z m 5.56155,4.09831 c 2.01812,-1.04362 1.68975,-3.46318 -0.56155,-4.13768 l -1.06627,-0.31947 0.85262,-0.2836 c 0.46895,-0.15598 1.08973,-0.60344 1.37952,-0.99435 0.4558,-0.61488 0.4835,-0.81547 0.20533,-1.48703 -0.3937,-0.9505 -1.2605,-1.37409 -2.81177,-1.37409 h -1.17818 v 4.49791 4.49792 h 1.20377 c 0.66207,0 1.55151,-0.17983 1.97653,-0.39961 z m 5.02212,1.3918 c 1.8e-4,-0.0364 1.10992,-2.50693 2.4661,-5.49011 2.33985,-5.14697 2.50535,-5.42793 3.24081,-5.50186 0.76557,-0.077 0.80317,-0.0155 3.07527,5.02709 3.06671,6.80609 2.88057,6.14667 1.68007,5.95186 -0.55177,-0.0895 -1.23924,-0.37625 -1.52772,-0.63713 -0.64838,-0.58636 -1.563,-2.33404 -1.3388,-2.55824 0.0908,-0.0908 -0.97289,-0.16505 -2.3637,-0.16505 h -2.52875 l -0.74923,1.71979 c -0.60726,1.39393 -0.86339,1.71979 -1.3518,1.71979 -0.33142,0 -0.60243,-0.0298 -0.60225,-0.0661 z m 6.76958,-4.36563 c -0.41372,-1.15488 -1.62449,-3.75679 -1.75116,-3.7632 -0.0773,-0.004 -0.57331,0.94539 -1.10213,2.10956 l -0.96151,2.11666 h 1.99034 c 1.78235,0 1.973,-0.0484 1.82446,-0.46302 z m 6.89181,3.8834 -0.69714,-0.54837 v -5.00788 c 0,-3.32014 0.0936,-5.00788 0.27772,-5.00788 0.52554,0 1.77507,0.77483 1.93918,1.20248 0.0904,0.23557 0.16435,2.56169 0.16435,5.16916 0,4.45021 -0.0303,4.74086 -0.49348,4.74086 -0.27142,0 -0.8072,-0.24676 -1.19063,-0.54837 z"
       id="path302"
       sodipodi:nodetypes="sscsscsssscssssscsccssscssssccssssssccssccsssscssccssssscsssssscsscsssssssssscsccscssssssssscccscscsssscssssccssssssscccsssscsscssccsccccsssssccsssssscssssssssscscssssscsscscccscccssssssssssssscsscsssscssssssssssssssscssssscssscsccssscccssscccssssscsscsscssssssscccsssssccsscsssscccsssssssssscssssscscssscssssss" /></g></svg>
