<?xml version="1.0" encoding="UTF-8" standalone="no"?>
<svg
   viewBox="0 0 512 512"
   version="1.1"
   id="svg4"
   sodipodi:docname="bell-concierge-solid-w.svg"
   inkscape:version="1.2.1 (9c6d41e410, 2022-07-14)"
   xmlns:inkscape="http://www.inkscape.org/namespaces/inkscape"
   xmlns:sodipodi="http://sodipodi.sourceforge.net/DTD/sodipodi-0.dtd"
   xmlns="http://www.w3.org/2000/svg"
   xmlns:svg="http://www.w3.org/2000/svg">
  <defs
     id="defs8" />
  <sodipodi:namedview
     id="namedview6"
     pagecolor="#505050"
     bordercolor="#eeeeee"
     borderopacity="1"
     inkscape:showpageshadow="0"
     inkscape:pageopacity="0"
     inkscape:pagecheckerboard="0"
     inkscape:deskcolor="#505050"
     showgrid="false"
     inkscape:zoom="1.5195312"
     inkscape:cx="196.44216"
     inkscape:cy="256"
     inkscape:window-width="1920"
     inkscape:window-height="1057"
     inkscape:window-x="-8"
     inkscape:window-y="-8"
     inkscape:window-maximized="1"
     inkscape:current-layer="svg4" />
  <!--! Font Awesome Pro 6.1.2 by @fontawesome - https://fontawesome.com License - https://fontawesome.com/license (Commercial License) Copyright 2022 Fonticons, Inc. -->
  <path
     d="M280 145.3V112h16C309.3 112 320 101.3 320 88S309.3 64 296 64H215.1C202.7 64 192 74.75 192 87.1S202.7 112 215.1 112H232v33.32C119.6 157.3 32 252.4 32 368h448C480 252.4 392.4 157.3 280 145.3zM488 400h-464C10.75 400 0 410.7 0 423.1C0 437.3 10.75 448 23.1 448h464c13.25 0 24-10.75 24-23.1C512 410.7 501.3 400 488 400z"
     id="path2"
     style="fill:#ffffff" />
</svg>
